<?xml version="1.0" encoding="UTF-8"?>
<svg version="1.1" viewBox="0 0 928 868" width="1280" height="1280" xmlns="http://www.w3.org/2000/svg">
<path transform="translate(0)" d="m0 0h928v868h-928z" fill="#5399C7"/>
<path transform="translate(0)" d="m0 0h928v868h-928zm578 13-28 3-26 5-17 4-22 7-11 5-12 5-22 12-14 8-14 9-13 10-14 12-12 11-11 11-7 8-13 16-13 18-5 7-5 9-4 8-1 3-5-1-8-4-12-4-13-2h-12l-11 1-8 3-16 7-14 10-14 11-13 10-15 12-17 13-15 12-9 7-14 11-18 14-14 11-16 13-16 12-11 9-6 5-10 13-8 16-3 9-2 11v15l4 18 6 15h2l1 4 7 12 13 16 36 42 13 15 11 12 7 8 9 10 7 8 12 13 9 10 7 7 7 8 32 34 7 7 7 8 7 7 7 8 13 13 7 8 12 10 14 8 14 5 12 2h14l13-2 20-7 10-6 11-8 26-20 5-2 1 4h4l4-3v-2l5-2 17-13 28-22 1-5h-2v-2l6 2v2l18 7 24 9 28 7 22 4 18 2 16 1h13l32-2 30-5 24-6 21-7 22-9 16-8 15-8 7-5 5-3 11-7 10-7v-2l6-3v-2l4-2 10-9 13-12 7-8 8-9 8-10 14-20 10-17 14-27 10-25 8-26 6-29 3-24 1-10v-32l-4-34-6-29-4-16-6-18-5-11-3-7-4-9-11-21-12-19-14-19-10-11-7-8-19-19-11-9-16-13-24-16-32-16-19-8-30-10-29-6-26-3-14-1z" fill="#FCFCFC"/>
<path transform="translate(579,65)" d="m0 0h31l23 3 28 6 20 6 21 8 25 12 14 8 18 13 11 9 12 11 14 15 12 14 11 15 15 27 11 26 8 24 5 25 4 26 1 10-1 26-5 33-7 28-7 19-9 20-8 15-6 9-8 11-9 13h-2l-1 3h-2l-2 5-6 8-15 16-10 9-17 13-15 10-22 12-9 4-17 6-7 3-28 8-17 3-30 2h-13l-25-2-30-5-24-7-12-4v-4l9-10 7-10 5-11 3-8 3-11 1-8v-13l-2-12-3-7-8-18v-2h-2l-1-5h-2l-2-6h-2l-2-7-3-1-3-5v-3h-2v-3h-2v-3h-2l-1-5h-2l-2-3v-3l-3-1-3-5v-3h-2v-3l-3-1-18-27-7-12-10-15-6-10-11-16-21-31-10-14-15-22-14-21-11-15-1-3 13-25 15-23 13-17 11-12 6-7 8-7 14-12 17-12 25-15 23-10 26-9 22-5 26-4z" fill="#906B52"/>
<path transform="translate(269,208)" d="m0 0h24l10 3 11 7 4 3v3l4 1 3 5 3 2 1 3 3 2v3l3 1 9 15 5 5 1 5h2v3l3 1 6 10 7 10 2 5h2v3h2l2 6h2l6 11 10 16 9 15 14 23 13 22 8 13 7 14 2 15v9l-4 15-5 10h-2l-2 5-6 9-4 5h-2l-2 4-8 7h-2l-2 4-9 7-10 8h-2v2l-9 7-7 5h-2v2l-11 8-13 10-15 12-17 13-18 14-13 8-15 7-15 4h-21l-8-1-10-5v-2l-4-2-8-7-14-14-8-7-9-10-7-7-3-1-1-3-4-2v-3l-4-1-8-8v-3l-4-1-4-4-3-5-11-10-7-8-9-10v-2l-4-2-5-7-5-5-2-4-4-2-9-10-8-10-10-13-8-15-2-4-1-6v-17l2-11 7-14 8-11 9-10 10-9 14-11 11-9 14-11 16-13 14-11 18-14 11-8 26-20 1-2 5-3 12-10 7-5h2v-2l8-4h2v-2l7-3 14-5z" fill="#5299C7"/>
<path transform="translate(579,65)" d="m0 0h31l23 3 28 6 20 6 21 8 25 12 14 8 18 13 11 9 12 11 14 15 12 14 11 15 15 27 11 26 8 24 5 25 4 26 1 10-1 26-5 33-7 28-7 19-9 20-8 15-6 9-8 11-9 13h-2l-1 3h-2l-2 5-6 8-15 16-10 9-17 13-15 10-22 12-9 4-13 5h-4l-2-16-2-7-1-13-1-2-1-50-1-17v-12l12-5 4-1h13l2 4h5l-2-5v-3h4l5-10 13-3 16-2 23-8 6-4h2v-2l7-5 2-4h2l-1-13-4-17-10-24-13-26-8-14-6-14-4-5-2-10v-17l-3-9-2-9 1-10-2-2v-6l1-4-7 6-3 3-3-1-2-14-3-22-5-19-5-13-10-14-5-6-11-7-16-6-19-4-10-7-23-7-16-2h-32l-13 2-11 2-11 5-16 9h-3v2h-3v2h-3v2l-10 5-2 4-6 4-10 11-3 3-2 3h-2l-1 4h-2l-1 4-3 3-1 3h-2l-2 6h-2v3h-2l-1 5h-2l-1 5-1 6 7 3 1 3-2 7v2l-11 2-17-1-25-5-11-4-9-7-1 1 6 5 8 4 23 5 19 3 1 4-5 17-4 27v31l3 17 5 19-1 2-6-7-30-45-9-12-8-12-16-23-9-14-9-12-1-3 13-25 15-23 13-17 11-12 6-7 8-7 14-12 17-12 25-15 23-10 26-9 22-5 26-4z" fill="#FCFCFC"/>
<path transform="translate(264,173)" d="m0 0h12l13 2 12 4 11 6 12 9 9 8 5 6v2h2l6 8 4 5v2h2l9 13 7 10 10 15 16 23 9 13 19 28 15 22 2 4 2 2 7 12 4 5 6 11 10 15 7 10 3 3v3h2l2 6 2 1 4 6v2h2l1 5h2v3h2v3h2l4 8 3 3 1 5h2l2 3v3h2l1 5h2l8 18 3 7 2 9 1 5v13l-2 11-3 12-8 16-8 11-11 12-8 6h-2l-1 3-11 8-7 6h-3l-1 3h-3l-2 4-3 1-7 8-15 12-12 9-15 11-7 6h-2v2l-10 6-15 12-15 11-7 5-14 6-17 5-8 1h-14l-15-3-15-6-14-9-13-12-9-10-12-12-7-8-7-7-7-8-10-10-7-8-9-9-7-8-16-17-15-16-7-8-11-12-7-8-9-10-7-8-11-13-9-10-9-11-13-15-11-13-11-16-3-5v-3h-2l-4-10-4-13-2-10v-15l3-15 7-16 9-13 5-6 11-9 15-12 13-10 16-13 16-12 25-20 17-13 28-22 15-12 13-10 16-12 14-8 15-5 1-1zm5 35-16 5-5 3-4 1v2l-7 2-3 2v2l-4 2-11 8-8 7-3 1-5 5-16 13-11 8-16 12-14 11-16 13-14 11-30 24-13 11-7 7-7 10-7 11-4 10-1 8v17l2 7 8 16 8 11 14 17 8 9h2l2 4 5 5 7 9h2l2 4 7 8 12 13 8 7 3 5 3 3h3l1 4 8 8h3l1 4 3 1 1 3 5 3 12 12 7 8 10 9 13 13 4 3h2v2l10 5 8 1h21l15-4 19-9 14-10 13-10 14-11 13-10 15-12 14-10v-2l5-2 13-10v-2l5-2 10-9 8-6v-2l4-2 8-7v-2h2l7-9 5-8v-2h2l6-12 3-13v-9l-2-15-8-16-11-18-13-22-11-18-8-13-14-23-2-4h-2l-2-6h-2v-3h-2l-2-5-10-14-4-7h-2v-3h-2l-2-6-5-6-5-7-4-7h-2l-1-4-2-1-2-4-4-3-2-4h-3v-3l-13-9-7-3-5-1z" fill="#213F89"/>
<path transform="translate(278,258)" d="m0 0h16l8 4 7 8 7 11 5 7v3h2l3 5 1 4h2l4 7 8 11v3h2v3h2v3h2l10 16 17 26 8 14 2 7-1 9-6 10-5 5-11 10-4 1-1 3-4 1v2l-8 6h-2v2l-5 2v2l-5 2-2 4-6 4-8 6-19 14-5 4h-2v2l-6 4-13 10-10 9-13 10-12 10-14 11-14 9-5 2h-8l-8-4-10-9-6-7-8-7-9-10-4-5-5-5-8-9-5-4-7-8-5-5-5-6v-2l-4-2-9-11-5-4-3-4v-2l-4-2-4-6-2-6v-11l6-10 10-9 13-10 17-14 13-10 16-13 14-11 13-10 17-13 4-2v-2l11-8 10-8 13-10 14-12 12-9 8-5z" fill="#D1D2D2"/>
<path transform="translate(690,228)" d="m0 0h7l10 4 11 7 6 5 1-3 1 4h4l2-4 5-6 2 2v5h-1v5l2 2-1 11 5 17v19l3 9 4 6 6 13 13 25 8 16 9 22 4 17 1 9-1 4h-2l-2 5-5 4h-2v2l-8 5-27 9-12 1-9 2h-4l-2 6-3 4h-4l2 8h-5l-2-3h-13l-15 5v12l1 17 1 50 1 2 1 13 2 7 1 5v12l-7 3-28 8-17 3-30 2h-13l-25-2-30-5-24-7-12-4v-4l9-10 7-10 5-11 3-8 3-11 1-8v-13l-2-12-3-7-8-18v-2h-2l-1-5h-2l-2-6h-2l-2-7h-2v-5l7-8 5-5 10-8 4-4 16-6 27-8h6l7 14 5 4 5 2 10-1 4-2 6-7 1-3h2v-6l3-4h32l19 1 23 3 7 2 1 6 13-3 6-1 1-2h2v-3h2l2-6 7-12 1-6v-12l-4-8-9-14-4-13-1-16-2-5v-4h-5l-10-9-4-6-3-9-5-4-12-5-2-4 1-5 9-1 5 1-4-3-12-7-4-5 1-4 3-2h8l9 4 1-1-8-7-6-7 4-4z" fill="#F2A79F"/>
<path transform="translate(579,65)" d="m0 0h31l23 3 28 6 20 6 21 8 25 12 14 8 18 13 11 9 12 11 14 15 12 14 11 15 15 27 11 26 8 24 5 25 4 26 1 10-1 26-5 33-7 28-7 19-9 20-8 15-6 9-8 11-4 4 2-5 9-17 14-32 7-21 5-23 2-15v-47l-4-28-6-24-9-26-12-25-10-18-12-16-9-10-24-24-11-9-17-12-21-12-15-7-15-6-23-7-25-5-16-2h-44l-24 3-21 5-25 8-17 7-17 9-16 10-19 14-16 15-3 4 17-8 11-5 16-7 11-4h2v-2l9-5 2-6h5v3h6l4-2v-3l4-2 9-3 22-3 17-1h14v1l-21 3-11 5-16 9h-3v2h-3v2h-3v2l-10 5-2 4-6 4-10 11-3 3-2 3h-2l-1 4h-2l-1 4-3 3-1 3h-2l-2 6h-2v3h-2l-1 5h-2l-1 5-1 6 7 3 1 3-2 7v2l-11 2-17-1-25-5-11-4-9-7-1 1 6 5 8 4 23 5 19 3 1 4-5 17-4 27v31l3 17 5 19-1 2-6-7-30-45-9-12-8-12-16-23-9-14-9-12-1-3 13-25 15-23 13-17 11-12 6-7 8-7 14-12 17-12 25-15 23-10 26-9 22-5 26-4z" fill="#C1C3C5"/>
<path transform="translate(649,219)" d="m0 0 1 3-3 21-2 7 13-2h6l4 10 5 24 4-2 6 1 6 4 3 5 1 8-3 10-5 6-5 2v8l-6 18-6 10-7 9-6 7-13 10-12 7-25 10 2 6v14l-4 5-5 2-8-1-7-4-2-2-2-5-1-9-28-2-16-3-16-6-14-8-11-9-13-13-4-11v-15l-3 1h-8l-7-4-3-5v-11l3-6 7-4h8l-2-11v-18l2-10 10 2 12 3 5-14 7-10 6-7 1 2-9 17-2 5v3l21 1 3-3 7-11 8-10 5-6v3l-8 16-4 10 13-2 5-5 8-10 9-14 3-5 3-1-2 6-9 20-1 5 15 1 7-1 7-8 12-19 5-9h2l-2 9-8 22 10 1 20-2 7-12z" fill="#F6D6BF"/>
<path transform="translate(264,173)" d="m0 0h12l13 2 12 4 11 6 12 9 9 8 5 6v2h2l6 8 4 5v2h2l9 13 7 10 10 15 1 4 16 24 8 11 10 15v2h2l6 11 4 9 1 9-1 1-1 14 1 6-4-1-3-5-2-3-1-4-3-1-1-6h-2l-2-5-4-7-7-10-4-7-5-6-5-9-3-5-4-7-15-24-13-18-14-19-10-11-12-9-14-6-4-1h-21l-12 3-12 5-18 11-14 11-16 13-15 12-19 14-14 11-10 8-13 10-10 8-6 4-11 9-10 8-6 4h-2l-2 4-4 1v2l-5 4-7 3-5 6-3 1-3 6-3 4-4 8-2 6-1 1-1 9-1 2h-2v6l-1 3 1 6 1 12 6 10v4h2l7 9 1 6h2v2h2v2h2v2l4 2 9 11 10 11 7 8 11 12 7 8 9 10 7 8 11 11v2h2l14 14v2h2l4 5 5 5 5 4v2l4 2v2l3 1v1l-8-1-10-4-4-1-11-8-2-1-1 2-11-9-5-4-7-8-2-4h-2l-5-5-3-4-1-3-3-2-6-8-8-9-4-2-1-4-6-8-5-7-5-5-7-8-4-8-11-13-12-17-8-14-4-13v-20l4-16 10-19 12-17 15-16 8-8 14-11 10-8 14-11 11-9 9-7 1-2 7-4 11-9 12-9 1-2 7-4 13-11 3-3h3l1-3 4-2 5-5 12-9 10-8h2l1-3 14-9 5-1 1-4 10-3 1-1z" fill="#3F62A9"/>
<path transform="translate(568,123)" d="m0 0h32v1l-9 1 13 1 2 4h5 4v4l6 1 4 4v7h2l2 6v6l-4 2-8-4-11-3-31 2-11 2 20 2 11 2 6 2 7 3 8 9 5 10v8l-6 16-8 16-8 11-8 10-5 4-6 2-1-1v-12l2-11 6-9 3-5h2l-1-4-3-2-4 4h-2l-1 5-4 2-2 5-9 7-3 2h-11l5-5 8-4 5-1v-3l-5-2-3-1-3 1-2 5-4 2-1 3-11 6-16 10-7 1 2-7 6-8 2-2 1-4h2l1-4h-8l-11 7-7 2v2l2 1v2l-7 3h-2v2l-5 1 1-4 7-5h2l1-6-13 5-7 3h-8l2-6 21-21-6 2-12 9-15 13-5 3-11 28-3 13v23l1 9 1 7-3-1-4-9-2-4v-3h-2l-4-4h-4v-9l4-27 5-17v-3l-30-5-12-3-9-5-7-6 3-1 9 7 11 4 25 5 17 1 11-1-1-4 2-7-8-4 1-6 2-5h2l1-5h2v-3h2l1-4 1-2h2l1-5 3-1 1-4h2l1-4 8-8 11-12 5-3 5-5 6-2v-2h3v-2h3v-2l16-8 7-4 11-4 17-2z" fill="#AD8970"/>
<path transform="translate(690,228)" d="m0 0h7l10 4 11 7 6 5 1-3 1 4h4l2-4 5-6 2 2v5h-1v5l2 2-1 11 5 17v19l3 9 4 6 6 13 13 25 8 16 9 22 4 17 1 9-1 4h-2l-2 5-5 4h-2v2l-8 5-27 9-12 1-9 2h-4l-1 2-3-4h-4l-2-3-4-17-1-3-2-1v-4l5-3 12-2 1-2h2v-3h2l2-6 7-12 1-6v-12l-4-8-9-14-4-13-1-16-2-5v-4h-5l-10-9-4-6-3-9-5-4-12-5-2-4 1-5 9-1 5 1-4-3-12-7-4-5 1-4 3-2h8l9 4 1-1-8-7-6-7 4-4z" fill="#F6D6BF"/>
<path transform="translate(687,151)" d="m0 0 9 6 9 11 6 9 6 16 5 21 2 17v13l-4-2-11-8-8-4-4-1h-7l-10 4-2 2 7 8 8 7-3 1-9-4h-8l-3 2 1 4 5 5 14 8-2 2-10-1h-3l1 8 14 6 5 6 3 9 9 10 3 2 5 1 3 9 1 16 4 13 10 16 2 3v7l-2-2-4-7-4-3v-2l-3-1v-2l-10-4h-3l1 10 3 7 1 11-4 11-3 1 1-12-4-13-7-8h-3l-1 6 1 12-6 8-10 7-12 6-4 3h-54l-4-4 2-4 15-5 16-8 11-7 5-5h2l2-4 8-9 8-13 6-18v-8l8-5 3-5 2-9-2-9-5-5-4-2-6 1h-3l-5-24-3-9-19 1 1-7 3-24 2-11 1-5v-16l2-9 3-5 10-3 4 1 6 3-1-1-1-2h-3l-3-4v-3l-9-3-2-2 2-4h26 1v-2l-2-1z" fill="#8F6A51"/>
<path transform="translate(589,124)" d="m0 0h22l25 7 8 4 5 4 23 5 14 6 2 7-3-1h-25v4l7 3 2 1 3 5v2l6 1 1 2-3 1-7-4-7 1-5 1-3 10-1 4v16l-5 21-8 19-8 13-20 2-11-1 7-20 4-12h-2l-2 5-8 14-10 14-4 4-13 1-9-2 1-8 11-23 5-6 1 4-2 11v12l8-3 9-10 8-12 6-10 8-20 1-3v-8l-5-10-7-8-7-3-9-3-17-2-13-1 2-2 11-2 31-2 14 4 6 3 2-1v-6l-1-1v-5h-2l-2-9-8-3-1-4-9 1-1-4-13-1z" fill="#8F6A51"/>
<path transform="translate(333,603)" d="m0 0h9l8 7 3 5 4 5 2 1 1 3 2 1 1 3 2 1 6 11v5l-8 9-5 2v2l-5 2v2l-13 9-4 4h-2v2l-15 6-8 1h-11l-18-5-4-3v-2l-4-2-7-8-2-3v-8l10-9 13-10 14-11 10-8 15-10z" fill="#FCFCFC"/>
<path transform="translate(473,489)" d="m0 0h5l2 4h3l7 11 3 8 2 6v16l-5 13-7 11-9 9-14 11-12 9-7 4-4-1-5-4-9-11-11-14-4-8v-7l2-5 9-10 18-14 15-12 9-7z" fill="#FCFCFC"/>
<path transform="translate(500,148)" d="m0 0v3l-4 6-6 4-10 11-3 3-2 3h-2l-1 4h-2l-1 4-3 3-1 3h-2l-2 6h-2v3h-2l-1 5h-2l-1 5-1 6 7 3 1 3-2 7v2l-11 2-17-1-25-5-11-4-9-7-3-2 2-6 9-13 9-10 8-7 8-5h3v-2l21-10 13-6 10-4 8-3h10l2 7 4-3 7-3z" fill="#FCFCFB"/>
<path transform="translate(379,217)" d="m0 0 5 1 6 5 8 4 23 5 19 3 1 4-5 17-4 27v31l3 17 5 19-1 2-6-7-30-45-9-12-8-12-16-23-5-8v-6l10-15z" fill="#FBFBFB"/>
<path transform="translate(687,151)" d="m0 0 9 6 9 11 6 9 6 16 5 21 2 17v13l-4-2-11-8-8-4-4-1h-7l-10 4-3 1-1-13h-1l-1-18-1-12-3 1-5 18-4 16-2 10-4-2-5-5-1-7 1-9 2-10v-16l2-9 3-5 10-3 4 1 6 3-1-1-1-2h-3l-3-4v-3l-9-3-2-2 2-4h26 1v-2l-2-1z" fill="#AD8970"/>
<path transform="translate(697,419)" d="m0 0 2 1 2 13 3 12h14l1 3-4 7h-4l2 8h-5l-2-3h-13l-15 5v12l1 17 1 50 1 2 1 13 2 7 1 5v12l-7 3-15 4-3-1-1-5 5-16v-12l-7 6-11 10-11 6-17 7h-5l5-5 11-8 4-3h2l2-4 10-12 10-18 6-13 5-17 4-22 3-19v-33l2 2 3 12 1 2 12 3 5-1v-10l-1-6z" fill="#E07A75"/>
<path transform="translate(709,351)" d="m0 0 6 1 7 4 3 3v2l4 2 4 5 1 3 2-2v12l-2 7-9 17h-2v3h-2l-1 3-12 2-8 2v-7l-23-3-7-1-51-2-2 4-1 6h-2l-1 4-6 7-8 3h-6l-8-4-6-8-3-6v-3h-6v-1l9-1 1 7 3 6 7 4 8 1 6-3 2-3v-14l-1-4 3 3h54l13-8 8-4 7-6 3-5-1-14 2-5 4 1 7 8 4 13-2 12 3-3 3-9-1-11-4-11v-6z" fill="#AD886F"/>
<path transform="translate(240,179)" d="m0 0 3 1h-2v2l-12 6-7 5-3 3-11 9-12 9-3 1-1 3-4 2-1 2h-3l-1 3-14 11-5 4h-3l-2 4-12 9-14 11h-3l-2 4-25 20-13 10-16 13-10 9-9 9-9 11-10 15-9 17-4 16v20l5 15 7 12 10 14 13 16 4 8 9 10v2l3 1 8 11 4 5 1 4 4 2 7 8 6 8 4 3v5l-7-6-9-10-9-11-10-11-9-11-13-15-11-13-11-16-3-5v-3h-2l-4-10-4-13-2-10v-15l3-15 7-16 9-13 5-6 11-9 15-12 13-10 16-13 16-12 25-20 17-13 28-22 15-12 13-10 16-12 14-8z" fill="#284990"/>
<path transform="translate(533,490)" d="m0 0 5 1 5 27 2 18v24l-4 32-10-1-26-8-7-3 2-4 11-13 5-9 4-8 3-8 3-11 1-8v-23l4-2z" fill="#FBFBFB"/>
<path transform="translate(205,206)" d="m0 0h3l-2 4-13 10-14 12-18 14-9 8-14 11-12 10-3 3-14 11-4 4h-2v2l-10 8-14 13-8 7-16 16-10 13-8 15-5 15-1 8v23l3 10 10 18 8 10v2h2l9 12 5 6v2h2l13 17 1 3h2l4 6-1 2-9-9v-2h-2l-9-11-10-11-11-14-10-13-7-11-6-12-3-10v-20l4-16 10-19 12-17 15-16 8-8 14-11 10-8 14-11 11-9 9-7 1-2 7-4 11-9 12-9 1-2 7-4 13-11 3-3h3l1-3 4-2 5-5z" fill="#5298C6"/>
<path transform="translate(263,351)" d="m0 0h3l6 7 4 7 11 13 5 7v2h2l1 4 3 1 4 8-8 7-10 8-4 2-5-4-10-13-7-8-2-6h-2l-8-10-5-6 2-4 13-10z" fill="#D0D1D0"/>
<path transform="translate(104,391)" d="m0 0 2 1-9 8-6 5-6 10v11l4 9 8 9 5 5 7 8 4 5 9 9 9 10 4 5 5 4 7 8 1 3 4 2 13 15 7 6 7 8 8 7 8 4h8l12-6 13-10 14-11 13-11 9-7 13-11 9-7h2v2l-14 11-8 7h-2v2l-13 10h-2v2l-14 11-4 3h-2v2l-8 6-9 6h-2v2l-6 3-7 1h-9l-6-2-8-5-5-5-4-2v-2l-6-2-5-5-5-4-6-7-4-4-6-4v-2h-2l-8-13-5-5v-2h-2l-7-13-6-9-4-5-9-11-2-6-4-9-2-4v-10l4-10 6-8 4-1v-2z" fill="#4E8DBD"/>
<path transform="translate(333,603)" d="m0 0h9l8 7 3 5 4 5 2 1 1 3 2 1 1 3 2 1 6 11v5l-8 9-5 2v2l-5 2v2l-13 9-4 4h-2v2l-15 6-8 1h-11l-18-5-4-3v-2l-4-2-7-8 2-2 8 7 12 6 6 1h10l11-2 8-4 13-10 13-12v-6l-7-12-7-8-5-6-9-7 5-4z" fill="#C0C2C4"/>
<path transform="translate(489,504)" d="m0 0 2 2 4 12v16l-5 13-7 11-9 9-14 11-12 9-7 4-4-1-5-4-9-11-11-14-4-8v-7l2-5 9-10 4-1-1 4-2 5 2 7 6 8 8 9 7 8 1 1h5l17-13 10-8 6-7h2l1-5 3-6 1-5z" fill="#C0C2C5"/>
<path transform="translate(527,419)" d="m0 0h1l3 24 3 18 5 23 2 6v8l-2-4v-3l-6-1-2 5-4 1v5h-1l-1-7-3-7-8-18v-2h-2l-1-5h-2l-2-6h-2l-2-7h-2v-5l7-8 5-5 10-8z" fill="#F0A69E"/>
<path transform="translate(670,191)" d="m0 0h3l2 16 1 13h1l1 15 7 8 8 7-3 1-9-4h-8l-3 2 1 4 5 5 14 8-2 2-10-1h-3l1 8 14 6 5 6 2 8h-2l-2-7-2 2-4-6-6-3-6 1h-3l-5-24-3-9-19 1 1-7 2-16h2l1 4 4 2 4 3 2-14 5-18 3-12z" fill="#8F6A51"/>
<path transform="translate(240,179)" d="m0 0 3 1h-2v2l-12 6-7 5-3 3-11 9-12 9-3 1-1 3-4 2-1 2h-3l-1 3-14 11-5 4h-3l-2 4-12 9-14 11h-3l-2 4-25 20-13 10-16 13-10 9-11 6-3 3h-2l-2 4-4 4h-2l-2 4-8 13-2-1-2 5-2 2-1 5-3 3h-2l3-10 8-14 9-11 11-9 15-12 13-10 16-13 16-12 25-20 17-13 28-22 15-12 13-10 16-12 14-8z" fill="#2B4A90"/>
<path transform="translate(773,68)" d="m0 0 9 5 17 14 14 12 21 21 18 22 14 21 11 19 7 13 3 8 5 12 8 22 7 29 4 22 1 9v9l-1-2h-2l-2-10-4-24-3-6h2l-3-8-4-18-2-1h2l-4-11-5-14-6-12-6-15-9-16-3-5-2-5h-2l-2-6h-2l-7-10-3-4v-2h-2l-5-6-5-5-6-7v-2l-4-2-4-5-2-1v-2h-2v-2l-4-2-10-9-2-1v-2h-2v-2l-5-2-7-6v-2l-3-1-3-3 1-1-4-2v-2h-2z" fill="#4D8BBC"/>
<path transform="translate(393,332)" d="m0 0 4 4 17 28 13 22 11 18 7 14 2 15v9l-4 15-5 10h-2l-2 5-6 9-4 5h-2l-2 4-8 7h-2l-2 4-9 7-10 8-4 1 3-5 10-9 8-7h2v-2l5-5 7-8 7-10 8-15 3-9 1-7v-14l-2-10-8-16-6-10-7-14-9-15-8-16-6-11z" fill="#9DD4EB"/>
<path transform="translate(362,672)" d="m0 0h5l-3 5-11 9-11 6-9 4-11 4-6 1h-19l-12-3-13-5-12-7-3-4 10-1 12 3 7 3 11 1 3 2h9l7-2 15-1 17-7 7-4 6-1z" fill="#3F62AA"/>
<path transform="translate(148,459)" d="m0 0 9 2 11 7 13 10 5 8 1 7-5 7-6 3h-7l-8-7-6-9-6-18z" fill="#8C6A57"/>
<path transform="translate(224,382)" d="m0 0 5 2 8 11 2 4 3 1 1 4-17 14-4 4-4-2-11-14-4-5v-4l18-13z" fill="#CFCFCF"/>
<path transform="translate(587,207)" d="m0 0 5 3v4h-2l-1 4-4 5-3 3h-2l-5 5h-2l-2 5-12 18-9 11-7 2h-8l3-10 8-16 3-7 4-1 6-1 5-1 6-4 5-4 2-5 4-1-1-3h2v-2z" fill="#926D54"/>
<path transform="translate(245,405)" d="m0 0 4 5 7 9 5 6 1 5-14 12-7 5-6-5-4-6-7-9 1-5h2v-2l13-10z" fill="#D0D1D0"/>
<path transform="translate(551,124)" d="m0 0h14v1l-21 3-11 5-16 9h-3v2h-3v2h-3v2l-6 3-3 2 1-4-7 4-5 2-3 2-2-7-8-1-2-3 9-5 2-6h5v3h6l4-2v-3l4-2 9-3 22-3z" fill="#F3D3BD"/>
<path transform="translate(112,319)" d="m0 0 2 1-17 17-11 9-13 12-7 8-7 11-5 13-1 5v21l4 11 8 13 10 13 12 14 11 14 7 8v3l-4-2-5-7-5-5-2-4-4-2-9-10-8-10-10-13-8-15-2-4-1-6v-17l2-11 7-14 8-11 9-10 10-9 14-11 11-9z" fill="#9BD2EA"/>
<path transform="translate(508,481)" d="m0 0 5 5 4 10 3 10v22l-5 15-8 16-5 7h-2l-4 6-10 10-8 5-1-4 11-14 8-10h2l2-5 3-7h2l1-5 5-14 1-14-2-21-2-7z" fill="#3F62AA"/>
<path transform="translate(541,499)" d="m0 0 2 3 2 7 3 5 5 10 3 8 6 10 10 19-1 3-4-1-4-5-3-5-5-5v-2h-2l-2 19v19l1 9-7 1-5-1 3-23h2l1-24-3-29-2-12z" fill="#E17C77"/>
<path transform="translate(473,389)" d="m0 0 4 2 9 15 4-1 2-5h4l4 7 2 13v14l-3 8-4-2v-3h-2v-3h-2l-1-5h-2l-2-3v-3l-3-1-3-5v-3h-2v-3l-3-1-6-11 1-5z" fill="#AC876E"/>
<path transform="translate(227,378)" d="m0 0h2l1 4h2l18 24 7 8 8 11 1 6-5 5-4 2v2l-4 1v2l-9 6-4 1-5-3-13-16v-3h-2l-4-6-10-11-6-8 1-8 11-9 8-6 4-1 3 1zm-3 4-21 15 1 5 11 14 5 6 4-2 10-9 9-7-2-5h-2l-2-4-5-6-3-5zm21 23-7 7-11 8v2l-3 1 1 5 9 12 4 5 4 2 10-9 10-8-2-6-4-5-10-14z" fill="#353755"/>
<path transform="translate(697,419)" d="m0 0 2 1 2 13 3 12h14l1 3-4 7h-4l2 8h-5l-2-3h-13l-15 5-1 14-3-4 1-11v-33l2 2 3 12 1 2 12 3 5-1v-10l-1-6z" fill="#DA7D76"/>
<path transform="translate(408,662)" d="m0 0 5 4 7 8 12 14 11 14 21 28 10 13 11 13 9 12v2h2l12 16 10 12 20 26 12 15 7 9-1 2-11-12-8-10-9-11-10-13-10-12-9-11-11-14-10-13-9-11-14-18-16-21-12-16-9-11-7-9-3-4z" fill="#D1D2D2"/>
<path transform="translate(261,348)" d="m0 0 7 1 9 11v2h2l8 12 8 9 9 12 1 8-12 9h-2v2l-4 3h-2v2l-5 1-5-2-7-8-15-20-13-16-1-2v-6l7-7 12-9zm2 3-16 12-5 4-1 3 7 8 6 8h2l2 6 9 10 10 13 4 2 14-11 7-6-4-8-3-1-1-4h-2l-2-5-9-11-8-10-3-5-4-5z" fill="#373856"/>
<path transform="translate(60,321)" d="m0 0 2 1-7 7-9 11-10 15-9 17-4 16v20l5 15 7 12 2 4-2 1-6-9-6-12-2-8-2-4-2-8-1-2v-13l3-16 2-5 4-5 3-7 2 1 7-11 7-8 8-7z" fill="#3E61A9"/>
<path transform="translate(595,396)" d="m0 0h7l5 5v14l-4 5-5 2-8-1-7-4-2-2-2-5-1-9-12-1v-1h14z" fill="#F3A9A0"/>
<path transform="translate(578,13)" d="m0 0h30l33 3 28 5v3l-20-2-2-1-23-1v-2h-2v2h-15-3v-3l-3-1h-20l-40 5-5 1-6 2-10 1-6 3-11 1-5 3h-8l-1 3h-2v-2l-2-1 22-7 36-8 24-3z" fill="#4F8FBF"/>
<path transform="translate(912,350)" d="m0 0h1l-1 18-5 30-6 24-9 26-9 20-13 25-10 16-11 15-2-1 2-5 9-13 2-5 3-3 1-4 3-2 10-20 5-9 5-15 2-5 7-14 3-11 2-12 1-2h2l-1-15h2l1-6 1-2 1-17z" fill="#4F8FBF"/>
<path transform="translate(875,183)" d="m0 0 3 1 6 11 3 8 5 12 8 22 7 29 4 22 1 9v9l-1-2h-2l-2-10-4-24-3-6h2l-3-8-4-18-2-1h2l-4-11-5-14-6-12-6-16z" fill="#4E8ABB"/>
<path transform="translate(322,353)" d="m0 0h5l4 4 5 2 1 3v4l-5 1 2 7 7 10 5-2 2-3h2l-2 4-5 4-4-1-4-6-3-3-2-3v-4h-2l-1 5-4 2-1 3-3 3-3-1-4-8 1-2-4 1 1-6 11-12z" fill="#CFCFCF"/>
<path transform="translate(852,391)" d="m0 0h1v8l-6 20-11 26-10 19-6 9-8 11-4 4 2-5 9-17 14-32 7-21 2 4h2l2-9 5-16z" fill="#C3C5C7"/>
<path transform="translate(614,67)" d="m0 0h13l25 5 20 5 28 10 29 14 15 9 15 11-1 2-10-7-10-5-13-8-27-13-27-9-14-4-32-7-11-2z" fill="#CFD0D0"/>
<path transform="translate(565,807)" d="m0 0h8l4 5v9l-4 6-4 3h-8l-5-3-2-3v-6l2-5h2v-2z" fill="#DA7872"/>
<path transform="translate(48,396)" d="m0 0 2 2 1 12 2 6 4 11 8 13 10 13 12 14 11 14 7 8v3l-4-2-5-7-5-5-2-4-4-2-9-10-8-10-10-13-8-15-2-4-1-6v-17z" fill="#9ED4EB"/>
<path transform="translate(736,382)" d="m0 0 5 1 1 3h2l1 6v12l-4 4-7 3h-12l1-6h2l2-6 8-14z" fill="#FCFBFB"/>
<path transform="translate(527,419)" d="m0 0h1l3 24 3 18 5 23 2 6v8l-2-4v-3l-6-1-2 5-3 1-2-7 2-5v-37l-2-25-2-1z" fill="#DE7B75"/>
<path transform="translate(642,104)" d="m0 0 6 4 5 2v2l35 2v1h-36v10h-13l-2-7v-2l-16 2-14 1h-17l-3-2 30-1 16-3 6-2 2-6z" fill="#ECD3C2"/>
<path transform="translate(804,498)" d="m0 0 1 4-5 6-12 9-1 4-7 8-5 5h-2l-2 4-12 9-5 3-6 2-1 3-11 7-6 4-9 5-11 3 3-3 22-12 10-7 12-9 11-9 12-11 12-13 5-5z" fill="#4C88BB"/>
<path transform="translate(280,256)" d="m0 0h14l8 4 9 10 4 5 5 9 17 25 11 17 10 16 7 10 10 16 7 11 3 7v11l-3 6-1-2 2-6-1-9-7-14-17-26-9-14-2-5h-2v-3h-2v-3h-2l-5-9-7-9v-3h-2l-3-5-1-4h-2l-5-9-7-10-7-9-8-4h-19l2-2z" fill="#3F62AA"/>
<path transform="translate(515,586)" d="m0 0 16 4 14 3 28 4 19 1h16l30-2-3 2-5 2-9 1h-43l-5 1-16-2-13-3-14-3-4-2-7-2-4-2z" fill="#4B84BA"/>
<path transform="translate(549,223)" d="m0 0 4 2-1 3-11 6-16 10-7 1 2-7 6-8 2-2 2-4 1 2z" fill="#AC886F"/>
<path transform="translate(727,191)" d="m0 0 6 2 2 3h19v1l-17 3-2 10h-9l-5 4-4-18v-3z" fill="#F5D6C0"/>
<path transform="translate(261,348)" d="m0 0 7 1 9 11v2h2l5 7v4l-4-2-8-10-3-5-3-3v-2l-6 3-14 11-4 4v3l3 1 9 11v2h2l3 7-1 4-4-6-11-13-4-6v-6l7-7 12-9z" fill="#303456"/>
<path transform="translate(665,249)" d="m0 0h3l3 4 5 5 14 8-2 2-10-1h-3l1 8 14 6 5 6 2 8h-2l-2-7-2 2-4-6-6-3-6 1h-3l-5-24-2-5z" fill="#977259"/>
<path transform="translate(454,619)" d="m0 0h2l-1 4-16 13-13 10-19 14h-2v2l-5 4-3-1v-4l4-2h3l1-3 8-6h2l2-4 8-4 5-5 9-8 9-6z" fill="#273058"/>
<path transform="translate(601,14)" d="m0 0h21l26 3 21 4v3l-20-2-2-1-23-1v-2h-2v2h-15-3v-3l-3-1z" fill="#4E8DBD"/>
<path transform="translate(91,439)" d="m0 0 3 1 6 8 6 5 7 9 9 9 9 10 4 5 5 4 7 8 1 3 4 2 13 15 7 6 7 8 4 5-4-2-8-8-8-7-10-10-9-11-3-3v-2l-3-1-6-7-13-13-8-10-9-9-9-11z" fill="#4168AD"/>
<path transform="translate(465,41)" d="m0 0 3 1-19 10-9 6-6 3-8 5-11 6-6 4-3 3-9 7-4 5-4 1-5 5-13 12-7 8-6 6-2-1 15-16 10-10 11-9 9-8 14-10 18-11 23-13z" fill="#4269AD"/>
<path transform="translate(411,542)" d="m0 0 1 2 1 6 3 7 1 4h2l5 7 4 3v2l3 1v2l4 2 2 2-1 5 3 1v4l-5-2-13-15-10-14-3-6v-7z" fill="#CFCFCF"/>
<path transform="translate(179,416)" d="m0 0 5 1 10 14 7 9v2l3 1 5 7v2h2l6 9v3l-4-1-9-12-4-6-3-5-7-7-8-11-2-1v-2h-2v8l-3 3-2-1v-7l5-5z" fill="#3A3C59"/>
<path transform="translate(200,398)" d="m0 0 3 1 8 11 9 11h3l4 9 8 10 9 9-4 1-5-3-13-16v-3h-2l-4-6-10-11-6-8z" fill="#3C3B55"/>
<path transform="translate(450,213)" d="m0 0 2 4 7 3 1 3-2 7v2l-11 2h-7l4-11z" fill="#F7D7C0"/>
<path transform="translate(605,397)" d="m0 0 3 3 7 2-1 4h-2l-1 8-4 5-2 5-6 2h-6l-8-4-6-8-3-6v-3h-6v-1l9-1 1 7 3 6 7 4 8 1 6-3 2-3v-14z" fill="#DE7A74"/>
<path transform="translate(452,615)" d="m0 0v3l-1 4-10 7-8 6-6 5-4 4-6 3-5 5-7 5-1 2-7 2-1 3-1-4h2v-2l4-3h2l1-3 10-7 16-12 13-10z" fill="#4662A0"/>
<path transform="translate(379,405)" d="m0 0 1 2-4 6-9 8-11 9-10 9-7 5h-2v2l-14 10-15 11-11 8-2-1 11-9 10-7 12-9 7-6h2v-2l5-2v-2l8-6h2v-2l4-2 3-3 11-9 3-3h2l2-4z" fill="#4065AB"/>
<path transform="translate(322,353)" d="m0 0h5l4 4 5 2 1 3v4l-5 1 2 7 7 10 5-2 2-3h2l-2 4-5 4-4-1-4-6-3-3-2-3v-4h-2l2-7-6 1-1 3-3 1 2-4 3-5-6-1z" fill="#C3C4C5"/>
<path transform="translate(612,129)" d="m0 0 3 1 1 4 5 4-1 6-8 4h-7l-1-12 4-2z" fill="#F7D7C0"/>
<path transform="translate(589,810)" d="m0 0 5 5 4 6 2 2-1 5-11 10-19 13-4 2h-6l-1-2 5-1 14-10 14-11 5-4-2-5-5-8z" fill="#C6C7C9"/>
<path transform="translate(227,378)" d="m0 0h2l1 4h2l9 12 5 7-2 2-5-4-8-10-3-5-4-1-14 10-5 4h-2l-1 2-1-4 11-9 8-6 4-1 3 1z" fill="#2E3354"/>
<path transform="translate(183,260)" d="m0 0m-1 1m-1 1m-1 1m-2 1h2v3l-19 14-16 13-14 11-10 8-2-2 12-11 16-12 14-11z" fill="#24428C"/>
<path transform="translate(368,111)" d="m0 0h2l-2 5-3 1v3l-4 1-1 4-4 4-1 2h-2v2l-4 2-4 5-4 9h-2l-1 4h-2l-1 3h-2l-2 5-5 4v-3l11-16 10-13 8-10 5-3z" fill="#4F8FBE"/>
<path transform="translate(836,435)" d="m0 0h2l-2 10-10 19-6 9-8 11-4 4 2-5 9-17 4-9h2l5-9 3-7z" fill="#CDCFCF"/>
<path transform="translate(286,480)" d="m0 0h2v2l-14 11-8 7h-2v2l-13 10h-2v2l-14 11-4 3h-2v2l-8 6-11 7-4 1v-2l12-7 16-13 9-7 16-13 22-18z" fill="#3F62AA"/>
<path transform="translate(263,653)" d="m0 0h1l1 7 7 9 6 5v2l4 2 18 5h21v2l-2 1h-26l-8-3-17-13-3-5-3-4v-7z" fill="#213567"/>
<path transform="translate(670,395)" d="m0 0v3l-7 4-1 1-43-1-2 4-1 6h-2l-1 4-6 7-2-1 3-5 3-7 1-4h2l-1-5 2-1h47z" fill="#A9846B"/>
<path transform="translate(492,400)" d="m0 0h4l4 7 1 3v10l-2-4-1-7h-3v9h-4l-4-3v-2h-2l-1-2v-6l4 1 2-1z" fill="#A37C62"/>
<path transform="translate(725,618)" d="m0 0m-3 1h3v3l-24 10-27 8h-9l3-2 24-7 16-6z" fill="#4C86BB"/>
<path transform="translate(683,26)" d="m0 0 7 1 25 9 24 11 11 6v2h-6l-1-3-3-1v-2l-6-2-9-4h-5l-4-3-9-3-4-2v-2l-11-1-8-3z" fill="#4A83B9"/>
<path transform="translate(718,328)" d="m0 0h2l4 8 2 5 7 14v6l-3-1-8-13-4-13z" fill="#FCF8F5"/>
<path transform="translate(489,504)" d="m0 0 2 2 4 12v16l-3 5-4 1-2-1 3-11z" fill="#ADBBC5"/>
<path transform="translate(42,334)" d="m0 0v3h-2l-2 4-8 13-2-1-2 5-2 2-1 5-3 3h-2l3-10 8-14 7-8z" fill="#29488F"/>
<path transform="translate(337,600)" d="m0 0 6 1 4 3v2h2l7 8 9 12 5 7v2h2l1 7-4-4-4-6v-3l-3-1v-3l-3-1v-3l-3-1-6-7v-3l-4-2-4-4-11-1 2-2z" fill="#1E2A56"/>
<path transform="translate(525,134)" d="m0 0 2 1-4 4-6 3h-3v2h-3v2h-3v2h-6l-1-7 1-2 13-2z" fill="#FAF7F5"/>
<path transform="translate(575,377)" d="m0 0h14l6 3-1 2-1 1h-11l-5-1-9 2h-5l1-3z" fill="#D87C74"/>
<path transform="translate(454,619)" d="m0 0h2l-1 4-16 13-9 7-4-2 5-5 8-7 9-6z" fill="#7A6057"/>
<path transform="translate(280,256)" d="m0 0h14l8 4 9 10 4 5 5 9 11 16-2 3v-3h-2l-3-5-1-4h-2l-5-9-7-10-7-9-8-4h-19l2-2z" fill="#4866A5"/>
<path transform="translate(408,542)" d="m0 0 1 4v7l6 11 11 13 9 11 3 2-1 2-8-6-7-8-10-12-5-10-1-1v-9z" fill="#202A56"/>
<path transform="translate(852,391)" d="m0 0h1v8l-6 20-5 12-3-1 4-13 8-25z" fill="#CFD0D0"/>
<path transform="translate(798,88)" d="m0 0 5 2 15 14 16 16 18 22-1 2-10-12-2-1-2-4-5-5-5-6-2-1v-2l-4-2v-2l-4-2v-2h-2v-2h-2v-2h-2v-2l-4-2-9-8z" fill="#3F64AA"/>
<path transform="translate(141,494)" d="m0 0 4 2 3 3v2l4 2 13 15 7 6 7 8 4 5-4-2-8-8-8-7-10-10-9-11-3-3z" fill="#4067AC"/>
<path transform="translate(377,264)" d="m0 0h2l8 12 13 19 10 14 9 14h-3l-1-4h-2l-7-11-11-16-7-10-10-15z" fill="#345090"/>
<path transform="translate(568,123)" d="m0 0h32v1l-9 1 13 1 2 4 4 2-4 1-6-3-12-3-12-1-9-1z" fill="#A47D63"/>
<path transform="translate(622,136)" d="m0 0 3 3v7h2l2 6v6l-4 2-8-4 4-1v-9z" fill="#AB856C"/>
<path transform="translate(459,617)" d="m0 0 9 3 26 10 18 6 8 2v1l-10-1-17-5-10-4-16-6-7-3z" fill="#4A72B0"/>
<path transform="translate(236,287)" d="m0 0 2 1-11 9-14 11-4 3h-2v2l-17 13-3 1v-2l4-3h2l1-4 8-4 10-9 10-7 1-2 4-2 1-2 7-4z" fill="#426AAE"/>
<path transform="translate(587,207)" d="m0 0 5 3v4h-2l-1 4-4 5-3 3 1-5-2 1v-2l-5 1 2-4h3l-1-3h2v-2z" fill="#A07A60"/>
<path transform="translate(542,642)" d="m0 0 11 1 13 2 15 1 5 1v1h-26l-20-3-1-2z" fill="#4E8CBD"/>
<path transform="translate(333,603)" d="m0 0h9l3 3-1 2-6-2v2l-8 2 3 5v3l-11-9 5-4z" fill="#C8CCCF"/>
<path transform="translate(284,371)" d="m0 0 5 5 10 12 5 7 1 8-1-3-3-1-4-7-3-3v-2h-2l-9-13z" fill="#3F3F5A"/>
<path transform="translate(473,147)" d="m0 0 3 1-9 4-8 4-16 6-22 11h-2v-2l15-8 13-5 13-6z" fill="#A08677"/>
<path transform="translate(433,276)" d="m0 0 1 2h2v6h2l3 6 2 10-2-1v-3h-2l-4-4h-4v-9z" fill="#A27B61"/>
<path transform="translate(837,224)" d="m0 0 4 4 9 24 1 4v9l-2-3-11-33z" fill="#CECFCF"/>
<path transform="translate(748,550)" d="m0 0h2v2h-2l-1 3-11 7-6 4-9 5-11 3 3-3 22-12 10-7z" fill="#4F8CBD"/>
<path transform="translate(382,216)" d="m0 0 4 1 10 7 13 4 21 4 10 1v2l-13-1-25-5-7-3-6-3-7-6z" fill="#8F7365"/>
<path transform="translate(687,151)" d="m0 0 9 6 5 6h-3l-4-2-12-2-1 2-4-1-1-3-3-1 13-1h1v-2l-2-1z" fill="#9F795F"/>
<path transform="translate(396,83)" d="m0 0 3 1-6 7-4 1-5 5-13 12-7 8-6 6-2-1 15-16 10-10 11-9z" fill="#4D72AB"/>
<path transform="translate(301,400)" d="m0 0h3l-1 4-10 8h-2v2l-4 3h-2v2l-5 1v-3l16-13z" fill="#2B3053"/>
<path transform="translate(551,124)" d="m0 0h14v1l-21 3-7 3h-5v-2h-8v-2l10-2z" fill="#F3D9C6"/>
<path transform="translate(340,439)" d="m0 0m-1 1m-2 1 2 1-2 1zm-2 2h2v3l-14 10-15 11-11 8-2-1 11-9 10-7 12-9z" fill="#4367AA"/>
<path transform="translate(492,536)" d="m0 0 1 4-7 14-9 10h-2l1-4h2l2-6 4-5 6-11z" fill="#CACED0"/>
<path transform="translate(68,473)" d="m0 0h2l13 17 1 3h2l4 6-1 2-9-9v-2h-2l-9-11-4-5z" fill="#4F8FBE"/>
<path transform="translate(240,370)" d="m0 0h2v2l3 1 9 11v2h2l3 7-1 4-4-6-11-13-3-4z" fill="#2B3156"/>
<path transform="translate(446,360)" d="m0 0h5l4 4 2 6 1 1v9l-4-2-3-6-2-5z" fill="#A6826A"/>
<path transform="translate(570,220)" d="m0 0 3 1v2l2 1-9 7-3 2h-11l5-5 8-4 5-1z" fill="#A37C62"/>
<path transform="translate(223,379)" d="m0 0 3 2-13 10-8 6h-2l-1 2-1-4 11-9 8-6z" fill="#262C52"/>
<path transform="translate(264,348)" d="m0 0 5 2 8 10v2h2l5 7v4l-4-2-8-10-3-5-4-5-2-2z" fill="#2E3253"/>
<path transform="translate(589,124)" d="m0 0h22l6 2-1 8-2-4-9 1-1-4-13-1z" fill="#957057"/>
<path transform="translate(720,213)" d="m0 0 2 1 2 17v13l-4-2-3-4 3-3z" fill="#946F56"/>
<path transform="translate(669,164)" d="m0 0 8 4 4 4v2h2v2h2l3 4v5l-3-1-9-9 2-2h-3v-2h-3l-3-4z" fill="#A37C62"/>
<path transform="translate(633,596)" d="m0 0h5l-3 2-5 2-9 1-34-1v-1l5-1h16z" fill="#4677B4"/>
<path transform="translate(200,442)" d="m0 0 4 1 5 7v2h2l6 9v3l-4-1-9-12-4-6z" fill="#333657"/>
<path transform="translate(536,275)" d="m0 0 1 3-7 6-7 3-9 4h-8l2-2 11-4 14-8z" fill="#4C424F"/>
<path transform="translate(859,157)" d="m0 0 4 1 13 22 1 3-3 1-5-7-6-12-3-4z" fill="#4F8FBE"/>
<path transform="translate(183,260)" d="m0 0m-1 1m-1 1m-1 1m-2 1h2v3l-19 14-9 7v-3l11-10z" fill="#25448E"/>
<path transform="translate(676,234)" d="m0 0 17 17-5-1-7-3h-8l-2 1 1-3 5-2z" fill="#AC886F"/>
<path transform="translate(520,22)" d="m0 0 2 1-3 3-5 2-11 1-5 3h-8l-1 3h-2v-2l-2-1 22-7z" fill="#5190BE"/>
<path transform="translate(814,181)" d="m0 0 3 1 10 17 9 17v5l-2-1-6-14-3-4-3-6-8-13z" fill="#CDCFCF"/>
<path transform="translate(268,662)" d="m0 0 8 6 9 5 4 2 6 1h17v1l-6 1h-12l-12-2-6-4-4-2-5-6z" fill="#D0D2D2"/>
<path transform="translate(242,404)" d="m0 0h3l-2 4-9 8-5 4h-2v2l-4 1 1-4 10-9z" fill="#2A2F51"/>
<path transform="translate(327,381)" d="m0 0 7 6 1 6-5 3-4-1-2-3 2-4z" fill="#98949B"/>
<path transform="translate(318,358)" d="m0 0 1 2-7 11 3 1 2 5v3l8-7 3-3-1 5-4 2-1 3-3 3-3-1-4-8 1-2-4 1 1-6z" fill="#A19B9E"/>
<path transform="translate(853,398)" d="m0 0 2 1-1 6-2 7-6 16-3 5-1-4 7-19 3-11z" fill="#4F91C0"/>
<path transform="translate(129,371)" d="m0 0 2 1-9 8-10 8-5 2 5-8 12-9z" fill="#4F8FBE"/>
<path transform="translate(348,326)" d="m0 0 5 5 8 11v2h2l3 4 3 7 4 7-1 2-24-36z" fill="#4F8FBE"/>
<path transform="translate(368,111)" d="m0 0h2l-2 5-3 1v3l-4 1-1 4-4 4-1 2h-2v2l-4 1-1-2 7-9 5-3z" fill="#508CBB"/>
<path transform="translate(804,498)" d="m0 0 1 4-5 6-16 12 2-4 8-9 8-7zm-21 22m-1 1m-1 1m-1 1m-1 1m-1 1m-1 1m-1 1m-1 1m-1 1m-1 1m-1 1m-2 1 2 1z" fill="#4F90BF"/>
<path transform="translate(509,198)" d="m0 0h5l1 3-10 5-11 9-2-1 8-7-2-3z" fill="#A37C62"/>
<path transform="translate(549,223)" d="m0 0 4 2-1 3-4 1v-2l-18 2-7 6 2-4 3-3 2-4 1 2z" fill="#9F795F"/>
<path transform="translate(829,454)" d="m0 0 1 3-8 14-4 5-9 12-1-2 7-12h2l1-4h2l1-6h2z" fill="#C4C5C7"/>
<path transform="translate(725,618)" d="m0 0m-3 1h3v3l-22 9h-3l2-4z" fill="#4C87BB"/>
<path transform="translate(652,214)" d="m0 0h2l2 5v15l-5-3-2-4v-5h2z" fill="#A37C62"/>
<path transform="translate(644,132)" d="m0 0h10l32 6 3 2-10-1-25-4h-7v2l-5-2-1-2z" fill="#EBD5C6"/>
<path transform="translate(613,401)" d="m0 0h6l-1 4-2 7h-2l-1 4-6 7-2-1 3-5 3-7 1-4h2z" fill="#AE8A71"/>
<path transform="translate(605,299)" d="m0 0h12l2 2-4 5-3 1-9-5v-2z" fill="#76605B"/>
<path transform="translate(226,459)" d="m0 0 3 2-4 4h-2v2l-8 6-1 1h-5l2-4 6-3h2l2-4 2-3z" fill="#2F365C"/>
<path transform="translate(479,234)" d="m0 0h4l-1 4-8 10h-2v-6l3-6z" fill="#AA856C"/>
<path transform="translate(596,270)" d="m0 0 5 1 27 2v2h-24l-8-4z" fill="#6D5855"/>
<path transform="translate(540,212)" d="m0 0v3l-4 5-3 1-4-1h-7l4-4 8-3z" fill="#A17A60"/>
<path transform="translate(240,674)" d="m0 0 4 2 9 8v2l4 1 2 1v2l4 2 5 3-3 1-12-8-13-12z" fill="#323B5E"/>
<path transform="translate(565,807)" d="m0 0h8l4 5v9l-4 6-3 2-3-1 6-5 2-4v-5l-1-3h-2v-2l-4 2-6-1z" fill="#936C54"/>
<path transform="translate(685,582)" d="m0 0 4 1-9 4-16 5-8 2h-6l4-2 30-9z" fill="#4E8EBD"/>
<path transform="translate(549,582)" d="m0 0 2 2 1 9-7 1-3-2 1-7 6 1z" fill="#AE8A71"/>
<path transform="translate(238,519)" d="m0 0m-1 1m-1 1v3l-5 4h-2v2l-8 6-11 7-4 1v-2l12-7 16-13z" fill="#3F62AA"/>
<path transform="translate(707,445)" d="m0 0h11l1 3-3 5h-4l-1-4h-2v-2h-2z" fill="#956F56"/>
<path transform="translate(322,353)" d="m0 0h5l6 5v2l-4-2-3-2 2 6-4 2-1 3-3 1 2-4 3-5-6-1z" fill="#A19390"/>
<path transform="translate(555,597)" d="m0 0 8 1h27l-3 2-14 2-16-2-2-1z" fill="#4F8FBE"/>
<path transform="translate(310,273)" d="m0 0h4l3 6 14 21-2 3v-3h-2l-3-5-1-4h-2l-5-9z" fill="#4466A8"/>
<path transform="translate(465,41)" d="m0 0 3 1-19 10-9 6-5 1 1-3 20-11z" fill="#426CAE"/>
<path transform="translate(263,653)" d="m0 0h1l1 7 7 9 6 5v2h2v2l-4-2-8-6-3-5-3-4v-7z" fill="#1A295C"/>
<path transform="translate(48,396)" d="m0 0 2 2 1 18-2 3-2-5v-17z" fill="#CBD5D8"/>
<path transform="translate(104,391)" d="m0 0 2 1-9 8-6 5-7 11-1-2 4-8 5-7 4-1v-2z" fill="#4F90BF"/>
<path transform="translate(683,577)" d="m0 0h2v6l-7 3-15 4-3-1 9-4 12-3z" fill="#B08C73"/>
<path transform="translate(312,679)" d="m0 0h11v2l-4 2h-15v-2h-8v-1z" fill="#D0D0D0"/>
<path transform="translate(719,39)" d="m0 0 5 1 17 8 9 5v2h-6l-1-3-3-1v-2l-6-2-13-6z" fill="#4471B2"/>
<path transform="translate(269,261)" d="m0 0 2 1-12 9-13 11-4 3-2-1 3-4 5-3 12-10z" fill="#436EB0"/>
<path transform="translate(399,296)" d="m0 0h2l18 27h-3l-1-4h-2l-7-11-7-10z" fill="#354E8D"/>
<path transform="translate(504,228)" d="m0 0h2v3l2 1v2l-7 3h-2v2l-5 1 1-4 7-5h2z" fill="#A57F66"/>
<path transform="translate(677,477)" d="m0 0h1l1 17v30h-1l-1-22-1-11z" fill="#F4B9AB"/>
<path transform="translate(330,301)" d="m0 0 5 5 13 20-1 2-2-1v-3h-2v-3h-2l-5-9-6-8z" fill="#3E63A9"/>
<path transform="translate(426,641)" d="m0 0 2 1-2 4-9 7h-2v-5l3-3z" fill="#443F53"/>
<path transform="translate(176,605)" d="m0 0 6 5 7 8 11 12h-3l-9-9-7-8-5-5z" fill="#34395C"/>
<path transform="translate(530,306)" d="m0 0 4 1-1 5-3 2-6-1v-4z" fill="#5D4D54"/>
<path transform="translate(682,279)" d="m0 0 6 1 6 5 3 10h-2l-2-7-2 2-4-6-5-3z" fill="#957057"/>
<path transform="translate(515,586)" d="m0 0 16 4 5 2-2 1-1 2-7-3-7-2-4-2z" fill="#4C88BB"/>
<path transform="translate(829,117)" d="m0 0 4 2 12 14 7 9-1 2-10-12-2-1-2-4-8-8z" fill="#436EB0"/>
<path transform="translate(829,451)" d="m0 0 1 3-7 11-2 3-1 2h-2l-2 4 1-5 6-12h2z" fill="#D2D3D3"/>
<path transform="translate(766,539)" d="m0 0 2 1-9 7-5 3-4 1-1-2 12-9h3z" fill="#4F90BF"/>
<path transform="translate(665,170)" d="m0 0h5l1 2-7 3-5 1-4 7h-1v-5l3-5z" fill="#A37C62"/>
<path transform="translate(452,615)" d="m0 0v3l-1 4-10 7-5 2 3-5 10-8z" fill="#4063A8"/>
<path transform="translate(703,33)" d="m0 0 7 1 9 4v2l3 1-2 2-4-3-9-3-4-2z" fill="#4C87BA"/>
<path transform="translate(493,630)" d="m0 0 27 8v1l-10-1-17-5-2-2z" fill="#4F79B4"/>
<path transform="translate(652,641)" d="m0 0h9v2l-10 2h-11l2-2z" fill="#4E8EBE"/>
<path transform="translate(332,375)" d="m0 0 4 2 5 7 5-2 2-3h2l-2 4-5 4-4-1-4-6-3-3z" fill="#6D6C7E"/>
<path transform="translate(561,209)" d="m0 0 2 4 4 1 3 4v2l-5-2-3-1-4 1 1-6z" fill="#A37C62"/>
<path transform="translate(593,126)" d="m0 0h11l2 4 4 2-4 1-6-3-7-2z" fill="#A37C62"/>
<path transform="translate(709,351)" d="m0 0 6 1 7 4 3 3v2l4 2 2 4-7-5v-2l-4-1-7-5-4-2z" fill="#A37C62"/>
<path transform="translate(741,610)" d="m0 0m-2 1 3 1v2l-10 5h-4l1-3z" fill="#497FB7"/>
<path transform="translate(756,602)" d="m0 0m-2 1 3 1v2l-9 5h-4l2-4z" fill="#4F84B9"/>
<path transform="translate(533,19)" d="m0 0h4l-1 3-6 2h-9l3-3z" fill="#4E8CBD"/>
<path transform="translate(422,530)" d="m0 0 1 3-4 4-3 4-4-1 2-4 6-5z" fill="#D1D2D2"/>
<path transform="translate(675,207)" d="m0 0 2 3 1 5 1 17-2 2-1-13h-1z" fill="#A37C62"/>
<path transform="translate(685,155)" d="m0 0 4 4h-7l-1 2-4-1-1-3-3-1z" fill="#A37C62"/>
<path transform="translate(681,634)" d="m0 0 1 2 3 1-11 3h-9l3-2z" fill="#4F90BF"/>
<path transform="translate(534,125)" d="m0 0h10l-3 2-11 2h-6v-2z" fill="#D1CFCD"/>
<path transform="translate(83,416)" d="m0 0h1l1 10 4 9v3l-6-9-1-2v-10z" fill="#466AAA"/>
<path transform="translate(567,225)" d="m0 0 1 2-3 1-1 2-9 3-3-1 7-5z" fill="#A9846B"/>
<path transform="translate(497,28)" d="m0 0h6l-2 3-3 1h-8l-1 3h-2v-2l-2-1z" fill="#5794BF"/>
<path transform="translate(286,480)" d="m0 0h2v2l-14 11-4 2 3-5 12-9z" fill="#4E6CA5"/>
<path transform="translate(379,405)" d="m0 0 1 2-4 6-9 8h-2l2-4 6-5h2l2-4z" fill="#4C6CA7"/>
<path transform="translate(514,131)" d="m0 0 3 1v3l-4 1h-7v-3z" fill="#FDFDFD"/>
<path transform="translate(489,504)" d="m0 0 2 2 2 6v6h-1l-1 9h-1z" fill="#C6C8C8"/>
<path transform="translate(198,316)" d="m0 0 4 1-13 10h-2v-2l4-3h2l1-4z" fill="#4B7EB5"/>
<path transform="translate(520,284)" d="m0 0 2 1v3l-8 3h-8l2-2 11-4z" fill="#7D6156"/>
<path transform="translate(205,206)" d="m0 0h3l-2 4-7 5-4-1z" fill="#4A82B8"/>
<path transform="translate(560,156)" d="m0 0 4 1 20 2v1h-14l-11-1z" fill="#A37C62"/>
<path transform="translate(382,216)" d="m0 0 4 1 10 7 3 1 1 3-5-2-6-3-7-6z" fill="#9C7B64"/>
<path transform="translate(724,565)" d="m0 0 3 1-2 3-13 5-2-1z" fill="#477AB5"/>
<path transform="translate(100,521)" d="m0 0 4 2 4 4v5l-7-6-2-4z" fill="#2B4F95"/>
<path transform="translate(532,819)" d="m0 0 3 1 8 10-1 2-6-5-4-5z" fill="#CBCCCD"/>
<path transform="translate(400,506)" d="m0 0 2 1-5 5-2 3-6 3h-2v-2l8-6z" fill="#19295B"/>
<path transform="translate(217,467)" d="m0 0 3 2-6 5h-5l2-4z" fill="#414059"/>
<path transform="translate(330,364)" d="m0 0 1 2 5-2-1 3h-3l2 8-4-1v-4h-2z" fill="#9698A7"/>
<path transform="translate(318,358)" d="m0 0 1 2-9 13-1-4 8-10z" fill="#746972"/>
<path transform="translate(253,686)" d="m0 0 4 1 2 1v2l4 2 5 3-3 1-12-8z" fill="#203060"/>
<path transform="translate(521,639)" d="m0 0 12 1 5 2v1h-8l-9-2z" fill="#4D89BC"/>
<path transform="translate(187,539)" d="m0 0 9 2 3 1 9-1-2 2-3 1h-8l-8-4z" fill="#BAAFA8"/>
<path transform="translate(805,493)" d="m0 0 1 2-3 5-7 7-2-1 4-6 3-3h2z" fill="#659FC5"/>
<path transform="translate(312,461)" d="m0 0m-2 1h2l-1 3-14 10-2-1 11-9z" fill="#4D6CA6"/>
<path transform="translate(215,458)" d="m0 0 4 1v2l3 1-3 5-4 1v-4h2z" fill="#B7ADA7"/>
<path transform="translate(853,398)" d="m0 0 2 1-1 6-2 7-3 1 2-10z" fill="#5092C1"/>
<path transform="translate(197,214)" d="m0 0v3l-10 8v-3l1-3 4-2 1-2z" fill="#5092C2"/>
<path transform="translate(358,207)" d="m0 0 1 3-6 12-3-1 4-9 3-3z" fill="#5092C1"/>
<path transform="translate(584,160)" d="m0 0h8l9 3 5 2-2 1-14-3-6-2z" fill="#A37C62"/>
<path transform="translate(612,148)" d="m0 0 3 1-1 3 3 3-11-2 2-1 1-3z" fill="#A37C62"/>
<path transform="translate(549,223)" d="m0 0 4 2-1 3-4 1v-2h-7v-3z" fill="#A37C62"/>
<path transform="translate(269,208)" d="m0 0h24v1l-14 2-10-2z" fill="#497FB6"/>
<path transform="translate(403,654)" d="m0 0 2 1-1 4-7 2-1 3-1-4h2v-2z" fill="#6D829D"/>
<path transform="translate(408,542)" d="m0 0 1 4v7l1 6-4-4v-9z" fill="#1D254E"/>
<path transform="translate(43,448)" d="m0 0 5 5 7 9-2 1v-2h-2l-8-10z" fill="#3F62AA"/>
<path transform="translate(830,444)" d="m0 0 1 4-6 10-1-3 5-10z" fill="#C5C6C8"/>
<path transform="translate(325,166)" d="m0 0 1 3-1 3h-2v3l-5 2 1-4 3-5z" fill="#5291BF"/>
<path transform="translate(263,653)" d="m0 0h1l1 7 4 6h-3l-4-5v-7z" fill="#1F2952"/>
<path transform="translate(578,403)" d="m0 0h1l1 7 1 4h-2l-3-6v-3h-6v-1z" fill="#AC886F"/>
<path transform="translate(350,333)" d="m0 0 4 5 5 9-5-2-2-5-3-4z" fill="#BBB1AA"/>
<path transform="translate(303,212)" d="m0 0 5 2 10 7-4 1-5-4v-2l-6-2z" fill="#4677B3"/>
<path transform="translate(798,88)" d="m0 0 5 2 10 9v2h-2v-2l-4-2-9-8z" fill="#436DAF"/>
<path transform="translate(543,17)" d="m0 0 7 1v2l-12 1v-3z" fill="#4F90BF"/>
<path transform="translate(717,231)" d="m0 0 4 1-1 4-4 3-3-4 5-1z" fill="#A47D63"/>
<path transform="translate(722,42)" d="m0 0 5 1 11 5-1 2h-2v-2l-9-2z" fill="#4F8FBE"/>
<path transform="translate(589,810)" d="m0 0 5 5 4 6 2 2-1 4-10-15z" fill="#D2D3D3"/>
<path transform="translate(767,596)" d="m0 0m-4 1h4l-2 4-4 2h-3l1-3z" fill="#528FBE"/>
<path transform="translate(581,411)" d="m0 0 5 5 8 4-4 1-7-4-2-2z" fill="#F6CDB9"/>
<path transform="translate(143,360)" d="m0 0 2 1-8 7-5 2 2-4z" fill="#4E8EBE"/>
<path transform="translate(175,421)" d="m0 0 2 2v6l-3 1-1-1v-7z" fill="#1F2750"/>
<path transform="translate(646,243)" d="m0 0 3 1-1 4h10v1l-13 1z" fill="#A78268"/>
<path transform="translate(837,224)" d="m0 0 4 4 3 9-4-2z" fill="#CCCECE"/>
<path transform="translate(830,208)" d="m0 0h2l4 8v5l-2-1-4-9z" fill="#CBCCCD"/>
<path transform="translate(874,479)" d="m0 0h2l-1 5-4 4-1-3z" fill="#4C88BB"/>
<path transform="translate(324,452)" d="m0 0m-1 1v3l-9 7-2-1 4-4z" fill="#4066AC"/>
<path transform="translate(605,397)" d="m0 0 3 3 4 2-3 3-1 9h-1l-1-13z" fill="#AA856C"/>
<path transform="translate(17,368)" d="m0 0h2l-1 8-2 7h-1l1-11z" fill="#2B4C94"/>
<path transform="translate(236,287)" d="m0 0 2 1-11 9-4-1 4-2 1-2 7-4z" fill="#4778B4"/>
<path transform="translate(573,258)" d="m0 0h6v3h7v1l-13 1 4-2-5-1z" fill="#A68066"/>
<path transform="translate(428,166)" d="m0 0h4v2l-11 5h-2v-2z" fill="#86808C"/>
<path transform="translate(527,419)" d="m0 0h1l1 11-2 3-1-11-2-1z" fill="#AD8970"/>
<path transform="translate(390,283)" d="m0 0h2l8 12h-3l-7-10z" fill="#284891"/>
<path transform="translate(366,111)" d="m0 0 2 1-7 8-3 3-2-1z" fill="#4779B5"/>
<path transform="translate(740,50)" d="m0 0 6 1 4 2v2h-6l-1-3-3-1z" fill="#4B83B9"/>
<path transform="translate(671,23)" d="m0 0 9 1 2 2-5 1-5-1z" fill="#4B84B9"/>
<path transform="translate(576,818)" d="m0 0 1 3-4 6-3 2-3-1 6-5z" fill="#976D56"/>
<path transform="translate(176,605)" d="m0 0 6 5 4 5-1 2-9-9z" fill="#1D3066"/>
<path transform="translate(685,582)" d="m0 0 4 1-9 4-6 1v-2l10-3z" fill="#4D8BBC"/>
<path transform="translate(675,464)" d="m0 0 2 2v13l-3-4z" fill="#AE8A71"/>
<path transform="translate(577,381)" d="m0 0 16 2v1h-15l-3-2z" fill="#F3A79F"/>
<path transform="translate(448,364)" d="m0 0 4 2v3h2l3 7-3-1-6-9z" fill="#ECD3C0"/>
<path transform="translate(251,274)" d="m0 0 1 3-10 8-2-1 3-4 5-3z" fill="#466DAC"/>
<path transform="translate(676,234)" d="m0 0 2 1 3 9-7 1 3-3z" fill="#A37D63"/>
<path transform="translate(829,117)" d="m0 0 4 2 7 8h-3l-8-8z" fill="#426BAE"/>
</svg>
